HIERARCHY
ROOT Hips
{
  OFFSET 30.4484 99.9731 -330.408
  CHANNELS 6 Xposition Yposition Zposition Zrotation Xrotation Yrotation
  JOINT ToSpine
  {
    OFFSET -0.0105055 1.38907 -7.13956
    CHANNELS 3 Zrotation Xrotation Yrotation
    JOINT Spine
    {
      OFFSET 0.0105055 10 1
      CHANNELS 3 Zrotation Xrotation Yrotation
      JOINT Spine1
      {
        OFFSET 0 12 1.60637
        CHANNELS 3 Zrotation Xrotation Yrotation
        JOINT Neck
        {
          OFFSET 0 27 2.26658
          CHANNELS 3 Zrotation Xrotation Yrotation
          JOINT Head
          {
            OFFSET 0 9 2.12705
            CHANNELS 3 Zrotation Xrotation Yrotation
            End Site
            {
              OFFSET 0 11 2
            }
          }
        }
        JOINT LeftShoulder
        {
          OFFSET 8 19.6109 2.86452
          CHANNELS 3 Zrotation Xrotation Yrotation
          JOINT LeftArm
          {
            OFFSET 12 1 0.681055
            CHANNELS 3 Zrotation Xrotation Yrotation
            JOINT LeftForeArm
            {
              OFFSET 19 0 -1.52608
              CHANNELS 3 Zrotation Xrotation Yrotation
              JOINT LeftHand
              {
                OFFSET 23 0 0
                CHANNELS 3 Zrotation Xrotation Yrotation
                End Site
                {
                  OFFSET 10 0 0
                }
              }
            }
          }
        }
        JOINT RightShoulder
        {
          OFFSET -8 19.6109 2.86452
          CHANNELS 3 Zrotation Xrotation Yrotation
          JOINT RightArm
          {
            OFFSET -12 1 0.681055
            CHANNELS 3 Zrotation Xrotation Yrotation
            JOINT RightForeArm
            {
              OFFSET -19 0 -1.52608
              CHANNELS 3 Zrotation Xrotation Yrotation
              JOINT RightHand
              {
                OFFSET -23 0 0
                CHANNELS 3 Zrotation Xrotation Yrotation
                End Site
                {
                  OFFSET -10 0 0
                }
              }
            }
          }
        }
      }
    }
  }
  JOINT LeftUpLeg
  {
    OFFSET 9 -7.17245 0
    CHANNELS 3 Zrotation Xrotation Yrotation
    JOINT LeftLeg
    {
      OFFSET 0 -44.1113 0
      CHANNELS 3 Zrotation Xrotation Yrotation
      JOINT LeftFoot
      {
        OFFSET 0 -36.1829 0
        CHANNELS 3 Zrotation Xrotation Yrotation
        JOINT LeftToeBase
        {
          OFFSET 0 -4.84184 13
          CHANNELS 3 Zrotation Xrotation Yrotation
          End Site
          {
            OFFSET 0 1 6
          }
        }
      }
    }
  }
  JOINT RightUpLeg
  {
    OFFSET -9 -7.17245 0
    CHANNELS 3 Zrotation Xrotation Yrotation
    JOINT RightLeg
    {
      OFFSET 0 -44.0551 0
      CHANNELS 3 Zrotation Xrotation Yrotation
      JOINT RightFoot
      {
        OFFSET 0 -36.1469 0
        CHANNELS 3 Zrotation Xrotation Yrotation
        JOINT RightToeBase
        {
          OFFSET 0 -4.92256 13
          CHANNELS 3 Zrotation Xrotation Yrotation
          End Site
          {
            OFFSET 0 1 6
          }
        }
      }
    }
  }
}
MOTION
Frames:	10
Frame Time:	0.0333333
30.4231 99.9703 -330.408 0.41208 -4.21599 4.17223 0 0 0 1.37229 -2.71486 0.0622155 -3.5845 11.5762 0.685566 10.5145 2.30197 -2.45145 -5.56355 -0.74123 2.11509 -32.7974 3.91992 -6.56588 -37.9882 26.6033 -19.5333 -3.46383 7.21015 -3.36871 -13.3119 -0.0366783 0.314487 28.2581 6.60636 15.5714 48.3461 14.7342 7.25319 2.52891 -0.513976 11.4911 2.53446 0.124803 5.35822 1.93771 3.96872 6.97977 -1.72331 5.87994 -16.9683 14.4182 2.13965 -0.27083 1.07885 -17.9029 1.60255 -1.33844 5.80678 -7.58284 1.00811 4.76373 -0.329545 -18.4387 2.20383 0.357735 4.2847 -16.9539 -10.3744 
30.3858 99.991 -330.4 0.25305 -4.02965 4.16969 0 0 0 1.35383 -2.97167 0.0609196 -3.42111 11.683 0.629112 10.6696 2.27561 -2.51229 -5.73119 -0.664609 2.14166 -32.8705 3.97164 -6.67915 -38.0592 26.5159 -19.2793 -3.29694 7.26922 -3.64857 -13.2482 -0.0493162 0.42461 28.2928 6.71161 15.8518 48.3007 14.638 7.04087 2.54826 -0.770972 11.6367 2.57145 0.121072 5.46456 2.17364 3.59848 7.18404 -1.82826 6.23242 -16.7899 13.7704 1.62448 -0.196085 1.10495 -17.6174 0.995656 -1.13767 5.64647 -7.41629 0.963277 4.62379 -0.548686 -18.4182 2.30449 0.373711 4.28048 -16.7607 -9.64178 
30.4523 100.079 -330.376 0.580623 -4.36194 4.11435 0 0 0 1.07411 -2.56902 0.0492268 -3.49292 11.8494 0.664794 11.0018 1.95721 -2.62988 -6.00001 -0.596767 2.1654 -32.8694 3.9502 -6.62474 -38.0786 26.5383 -18.8724 -2.76858 6.94477 -4.80949 -13.421 -0.0906956 0.769563 28.2255 6.67438 15.7821 48.2182 14.9549 7.46781 2.67047 -0.890952 11.5191 2.39842 0.104823 4.99932 1.69242 4.1248 7.10129 -1.7811 5.8378 -15.4301 12.5911 1.43363 -0.156995 1.23414 -16.8029 -1.05117 -1.56518 6.04264 -7.78154 0.941765 4.71064 -0.605975 -18.3271 1.71372 0.276408 3.9249 -14.7998 -6.76313 
30.3524 100.073 -330.376 0.352738 -4.00475 4.00933 0 0 0 0.965092 -2.88443 0.172503 -2.96619 11.7429 0.617135 10.3322 2.39902 -2.63917 -5.46374 -0.985583 1.84725 -33.5007 4.01649 -6.62939 -37.7749 27.0305 -18.2246 -2.40797 6.29812 -6.00811 -13.4829 -0.135669 1.14533 27.7995 6.59834 15.7949 48.4104 15.0476 7.34657 2.7155 -0.965574 11.4228 2.31189 0.0941397 4.67022 2.1361 3.46294 7.38491 -1.94892 6.40943 -15.3338 13.2883 1.01132 -0.117298 1.32347 -16.5133 -2.1605 -1.21579 5.62058 -7.36663 0.822305 4.67704 -0.863309 -18.2828 1.81007 0.291266 3.99135 -15.0885 -6.72218 
30.4765 100.057 -330.357 0.514195 -4.15736 3.8101 0 0 0 1.14535 -2.50854 0.141997 -3.49559 11.5105 0.755651 10.9758 2.59046 -2.69848 -5.58975 -1.13526 2.03049 -32.9522 4.00159 -6.73415 -37.6702 27.3482 -19.4495 -3.48238 5.7693 -3.77712 -13.0568 -0.0960559 0.840976 28.1953 6.71004 15.9001 48.2138 15.1391 7.23546 2.71569 -1.01803 11.6347 2.71481 0.107427 4.52964 1.732 4.03522 7.16612 -1.84182 5.67078 -15.1778 12.5824 1.37347 -0.151042 1.23564 -16.714 -1.12828 -1.54215 5.75742 -7.69684 0.939901 4.77132 -0.452993 -18.4889 1.7229 0.280539 4.04365 -15.3293 -6.65722 
30.4001 100.067 -330.347 0.387858 -3.80554 3.7078 0 0 0 1.15564 -2.88467 0.170436 -3.61148 11.6421 0.783498 11.2372 2.00325 -2.68893 -5.81172 -0.474542 2.15014 -32.4942 3.98199 -6.80491 -38.6775 26.9834 -18.2649 -2.51247 6.02334 -5.74264 -13.1754 -0.170746 1.4752 28.3138 6.72291 15.8724 48.15 15.1079 7.33162 2.6857 -0.904162 11.6647 2.74842 0.110018 4.57708 1.99031 3.31669 7.31105 -1.88214 6.3493 -14.9409 13.0971 1.01722 -0.116429 1.33826 -16.634 -2.25917 -1.29182 5.36557 -7.29293 0.749144 4.75766 -0.738767 -18.1984 1.66188 0.266204 3.98967 -15.0784 -6.63786 
30.382 100.062 -330.36 0.247362 -3.58043 3.59842 0 0 0 1.28524 -2.94021 0.210398 -3.59817 11.4956 0.815001 11.2815 1.82599 -2.59858 -5.96657 -0.213303 2.28362 -32.6322 4.02304 -6.87393 -38.7812 27.3122 -17.3097 -1.94841 5.15895 -7.41507 -13.3498 -0.229598 1.95864 28.3626 6.70369 15.7916 47.9715 15.2323 7.37945 2.79443 -1.1904 11.6081 2.95803 0.123762 4.78727 2.15858 3.10888 7.45799 -2.00226 6.36809 -15.3137 12.6529 1.25898 -0.138439 1.22229 -16.7377 -1.01731 -1.19142 5.08714 -7.20714 0.801671 4.74117 -0.608793 -18.3007 1.85478 0.298763 3.92082 -14.773 -7.12528 
30.4686 100.073 -330.321 0.518474 -3.84665 3.48158 0 0 0 1.1829 -2.35729 0.23611 -3.80841 11.1453 0.918253 11.4894 1.95494 -2.742 -6.14235 -0.659005 2.23641 -32.3643 4.00279 -6.89383 -38.1607 27.9304 -19.3451 -3.55734 4.11767 -4.02479 -12.9319 -0.158018 1.39652 28.3706 6.658 15.6578 48.0493 15.5155 7.40257 2.89934 -1.49795 11.6857 2.66323 0.103199 4.44012 1.69973 3.51908 7.08789 -1.75719 6.02852 -14.0267 13.4921 0.831024 -0.0975451 1.43176 -16.2194 -3.43247 -1.57261 5.40011 -7.52989 0.859024 4.76734 -0.225445 -18.3996 1.72857 0.280084 4.02113 -15.2297 -6.74999 
30.4268 100.04 -330.28 0.302552 -3.72924 3.27381 0 0 0 1.37621 -2.55987 0.295249 -3.74343 11.3033 0.960543 11.2556 1.86827 -2.74576 -6.12483 -0.685375 2.1459 -32.6676 3.98258 -6.76043 -37.8417 28.341 -18.8923 -3.11731 3.32501 -5.29938 -13.1226 -0.222867 1.93267 28.5042 6.7537 15.8572 47.8152 15.5611 7.26331 2.89818 -1.67921 11.8227 2.66808 0.0993422 4.26444 1.97718 3.58707 7.37544 -1.97249 5.90201 -14.8765 12.7588 1.24177 -0.137903 1.22157 -16.887 -0.852947 -1.31195 5.2281 -7.3323 0.848788 4.80176 -0.219384 -18.7429 1.91051 0.315267 4.09596 -15.5804 -6.74175 
30.3544 100.036 -330.275 0.105593 -3.34753 3.20742 0 0 0 1.49626 -2.97246 0.350517 -3.92339 11.3665 1.02252 11.5499 1.82723 -2.74091 -6.20466 -0.743602 2.25428 -32.337 3.98197 -6.84718 -38.6359 28.096 -17.7394 -2.23972 3.32284 -7.26989 -13.3191 -0.314936 2.69545 28.6018 6.66499 15.5553 47.7398 15.6517 7.51358 2.94544 -1.66008 11.725 2.72204 0.101037 4.24975 2.33649 2.69911 7.55217 -2.00843 6.84005 -14.5398 13.3331 0.552193 -0.063919 1.32007 -16.7274 -2.03246 -1.0087 4.7835 -6.90139 0.732651 4.80234 -0.550953 -18.8572 2.00115 0.332368 4.07807 -15.5179 -7.03857 
